# File created by Blade
# Date/Time:  Thu Sep 25 17:14:50 2014
# Frame Rate: 120.000 fps
#------------------------------------------------------
:FULLY-SPECIFIED
:DEGREES
728
root -36.787300 31.656950 11.629585 192.257214 69.557887 184.001970
Spine -8.123878 -4.026280 -2.894105
Head 1.512291 -19.523313 17.628409
LeftShoulder -13.752027 18.801505 30.812820
LeftArm 20.990751 -19.725214 -16.455288
LeftForeArm 14.844098 -0.000000 10.538840
LeftHand -27.222357 0.000000 -1.560993
LeftHandThumb1 -26.253704 0.000000 33.147579
RightShoulder -25.264265 10.620788 -37.394262
RightArm -18.926728 13.275596 25.623548
RightForeArm -24.019313 -0.000000 18.231550
RightHand -17.411097 -0.000000 1.241839
RightHandThumb1 -24.326973 -0.000000 -32.862282
LeftUpLeg 6.912153 7.355085 -3.186276
LeftLeg -5.612085 -0.000000 0.000000
LeftFoot -18.418332 11.429758 -28.321981
LeftToeBase 3.867344 -0.000000 -0.000000
RightUpLeg -28.364783 -17.967115 8.693898
RightLeg -2.816525 -0.000000 0.000000
RightFoot 27.680617 12.550500 3.548941
RightToeBase -5.211039 -0.000000 0.000000
729
root -36.816014 31.650469 11.641664 192.151053 69.485570 183.991817
Spine -8.092931 -3.998603 -2.896498
Head 1.431968 -19.514485 17.590296
LeftShoulder -13.714484 18.831540 30.797221
LeftArm 20.990775 -19.736622 -16.436180
LeftForeArm 14.916858 -0.000000 10.528201
LeftHand -27.084039 -0.000000 -1.645713
LeftHandThumb1 -26.253704 0.000000 33.147579
RightShoulder -25.277479 10.618901 -37.428883
RightArm -18.886403 13.191894 25.668944
RightForeArm -24.271818 0.000000 18.187846
RightHand -17.602992 -0.000000 1.339620
RightHandThumb1 -24.326973 -0.000000 -32.862282
LeftUpLeg 6.914978 7.233105 -3.203582
LeftLeg -5.555829 -0.000000 0.000000
LeftFoot -18.566964 11.634660 -28.175239
LeftToeBase 3.804990 -0.000000 -0.000000
RightUpLeg -28.380007 -17.987814 8.667081
RightLeg -2.789254 -0.000000 0.000000
RightFoot 27.943304 12.549935 3.552342
RightToeBase -5.736556 -0.000000 0.000000
730
root -36.844154 31.642001 11.653097 192.035228 69.420329 183.974475
Spine -8.056188 -3.976618 -2.891181
Head 1.333272 -19.513434 17.569861
LeftShoulder -13.659224 18.826654 30.771480
LeftArm 20.918905 -19.777864 -16.355070
LeftForeArm 14.357664 -0.000000 10.668252
LeftHand -27.820165 -0.000000 -1.708100
LeftHandThumb1 -26.253704 0.000000 33.147579
RightShoulder -25.238158 10.640596 -37.433572
RightArm -18.929759 13.141346 25.634420
RightForeArm -24.265789 -0.000000 18.214604
RightHand -17.610826 -0.000000 1.401128
RightHandThumb1 -24.326973 -0.000000 -32.862282
LeftUpLeg 6.920817 7.049580 -3.229402
LeftLeg -5.490413 -0.000000 0.000000
LeftFoot -18.770401 11.856906 -27.998513
LeftToeBase 3.855266 -0.000000 -0.000000
RightUpLeg -28.383770 -18.007688 8.628937
RightLeg -2.777249 -0.000000 0.000000
RightFoot 28.200601 12.606289 3.440150
RightToeBase -6.093413 -0.000000 0.000000
731
root -36.869853 31.631614 11.663272 191.911413 69.379462 183.960638
Spine -7.974279 -3.930543 -2.890725
Head 1.198793 -19.452104 17.574582
LeftShoulder -13.631697 18.814189 30.731457
LeftArm 20.840340 -19.786488 -16.261468
LeftForeArm 14.224959 -0.000000 10.744365
LeftHand -28.273002 -0.000000 -1.889741
LeftHandThumb1 -26.253704 0.000000 33.147579
RightShoulder -25.210943 10.678351 -37.464373
RightArm -18.977822 13.151639 25.623512
RightForeArm -24.489979 -0.000000 18.235871
RightHand -17.643127 0.000000 1.316370
RightHandThumb1 -24.326973 -0.000000 -32.862282
LeftUpLeg 6.937271 6.894380 -3.260972
LeftLeg -5.414772 -0.000000 0.000000
LeftFoot -18.982977 12.088337 -27.857323
LeftToeBase 3.792735 -0.000000 -0.000000
RightUpLeg -28.370803 -18.023142 8.593563
RightLeg -2.751030 -0.000000 0.000000
RightFoot 28.404579 12.596475 3.419347
RightToeBase -6.361897 -0.000000 0.000000
732
root -36.896390 31.619062 11.672278 191.749284 69.333513 183.887943
Spine -7.904872 -3.908971 -2.892529
Head 1.057970 -19.356695 17.560932
LeftShoulder -13.587667 18.848618 30.708474
LeftArm 20.737525 -19.840800 -16.232716
LeftForeArm 14.363052 -0.000000 10.744996
LeftHand -28.124262 -0.000000 -1.838812
LeftHandThumb1 -26.253704 0.000000 33.147579
RightShoulder -25.227329 10.659351 -37.473064
RightArm -18.882321 13.133102 25.650867
RightForeArm -24.453700 -0.000000 18.186173
RightHand -17.615447 0.000000 1.042473
RightHandThumb1 -24.326973 -0.000000 -32.862282
LeftUpLeg 6.932734 6.670276 -3.316503
LeftLeg -5.323103 -0.000000 0.000000
LeftFoot -19.196864 12.347533 -27.645344
LeftToeBase 3.715273 -0.000000 -0.000000
RightUpLeg -28.372121 -18.067626 8.543432
RightLeg -2.745959 -0.000000 0.000000
RightFoot 28.630802 12.683055 3.356787
RightToeBase -6.734448 -0.000000 0.000000
733
root -36.924282 31.606532 11.679451 191.513237 69.336863 183.750157
Spine -7.791368 -3.854346 -2.958023
Head 0.896856 -19.284926 17.640351
LeftShoulder -13.672140 18.981400 30.655935
LeftArm 20.849710 -19.871621 -16.192486
LeftForeArm 14.916239 -0.000000 10.419609
LeftHand -27.509948 -0.000000 -1.478917
LeftHandThumb1 -26.253704 0.000000 33.147579
RightShoulder -25.211901 10.626731 -37.394424
RightArm -18.834114 13.072548 25.644427
RightForeArm -24.525258 -0.000000 18.266389
RightHand -17.744341 -0.000000 1.061339
RightHandThumb1 -24.326973 -0.000000 -32.862282
LeftUpLeg 6.953714 6.397099 -3.414518
LeftLeg -5.258648 -0.000000 0.000000
LeftFoot -19.377876 12.743735 -27.375091
LeftToeBase 3.398397 -0.000000 -0.000000
RightUpLeg -28.365220 -18.087860 8.469769
RightLeg -2.730945 -0.000000 0.000000
RightFoot 28.927861 12.644441 3.413004
RightToeBase -7.285785 -0.000000 0.000000
734
root -36.950404 31.592722 11.686762 191.253425 69.345632 183.572755
Spine -7.693385 -3.818877 -3.025694
Head 0.725319 -19.198818 17.694604
LeftShoulder -13.659865 18.996586 30.657989
LeftArm 20.726065 -19.843541 -16.111139
LeftForeArm 14.977263 -0.000000 10.380877
LeftHand -27.382928 -0.000000 -1.566293
LeftHandThumb1 -26.253704 0.000000 33.147579
RightShoulder -25.201530 10.566540 -37.367555
RightArm -18.738631 13.129339 25.686368
RightForeArm -24.719037 -0.000000 18.258708
RightHand -17.677184 -0.000000 1.040481
RightHandThumb1 -24.326973 -0.000000 -32.862282
LeftUpLeg 6.982046 6.083456 -3.523772
LeftLeg -5.239864 -0.000000 0.000000
LeftFoot -19.543611 13.153208 -27.141808
LeftToeBase 3.316118 -0.000000 -0.000000
RightUpLeg -28.368069 -18.111492 8.400395
RightLeg -2.743728 -0.000000 0.000000
RightFoot 29.284452 12.586646 3.480313
RightToeBase -8.018540 -0.000000 0.000000
735
root -36.976069 31.579257 11.692103 190.933152 69.392610 183.321355
Spine -7.597570 -3.754022 -3.138769
Head 0.594471 -19.142837 17.749251
LeftShoulder -13.697248 19.066418 30.673270
LeftArm 20.689327 -19.812932 -16.047858
LeftForeArm 14.941649 -0.000000 10.315384
LeftHand -27.420997 -0.000000 -2.143963
LeftHandThumb1 -26.253704 0.000000 33.147579
RightShoulder -25.141966 10.557188 -37.360905
RightArm -18.782302 13.188324 25.700607
RightForeArm -24.846539 -0.000000 18.282232
RightHand -17.737921 -0.000000 0.962451
RightHandThumb1 -24.326973 -0.000000 -32.862282
LeftUpLeg 7.029307 5.776500 -3.663122
LeftLeg -5.254020 -0.000000 0.000000
LeftFoot -19.684018 13.492890 -27.008376
LeftToeBase 3.074302 -0.000000 -0.000000
RightUpLeg -28.396930 -18.196421 8.342080
RightLeg -2.740544 -0.000000 0.000000
RightFoot 29.448898 12.720410 3.345469
RightToeBase -8.192366 -0.000000 0.000000
736
root -36.999919 31.568119 11.698002 190.590281 69.457443 183.045358
Spine -7.499553 -3.652257 -3.269032
Head 0.485835 -19.108746 17.806187
LeftShoulder -13.616330 18.981544 30.754964
LeftArm 20.397202 -20.167800 -16.161866
LeftForeArm 14.756278 0.000000 10.807246
LeftHand -28.141248 -0.000000 -2.716466
LeftHandThumb1 -26.253704 0.000000 33.147579
RightShoulder -25.139137 10.495891 -37.298210
RightArm -18.672137 13.045740 25.777544
RightForeArm -25.057458 -0.000000 18.260057
RightHand -17.916739 0.000000 0.954195
RightHandThumb1 -24.326973 -0.000000 -32.862282
LeftUpLeg 7.066615 5.472186 -3.808051
LeftLeg -5.230681 -0.000000 0.000000
LeftFoot -19.836762 13.818466 -26.924131
LeftToeBase 2.895670 -0.000000 -0.000000
RightUpLeg -28.424009 -18.290365 8.285403
RightLeg -2.725707 -0.000000 0.000000
RightFoot 29.838268 12.782550 3.711863
RightToeBase -8.926520 -0.000000 0.000000
737
root -37.022667 31.558131 11.702779 190.259397 69.574136 182.745006
Spine -7.455767 -3.528466 -3.395071
Head 0.409167 -19.110381 17.810011
LeftShoulder -13.674568 19.018187 30.732739
LeftArm 20.433837 -19.941156 -16.000176
LeftForeArm 14.410597 0.000000 10.585146
LeftHand -28.252053 0.000000 -2.696946
LeftHandThumb1 -26.253704 0.000000 33.147579
RightShoulder -25.124028 10.438347 -37.271472
RightArm -18.585360 12.878332 25.868325
RightForeArm -25.101732 -0.000000 18.293532
RightHand -18.177780 0.000000 1.019659
RightHandThumb1 -24.326973 -0.000000 -32.862282
LeftUpLeg 7.081196 5.422000 -3.933009
LeftLeg -5.279246 -0.000000 0.000000
LeftFoot -19.841597 13.875225 -26.737521
LeftToeBase 2.941104 -0.000000 -0.000000
RightUpLeg -28.480381 -18.366958 8.232840
RightLeg -2.703953 -0.000000 0.000000
RightFoot 29.942625 12.741018 3.906532
RightToeBase -8.553996 -0.000000 0.000000
738
root -37.044687 31.549966 11.707989 189.921131 69.685110 182.412577
Spine -7.446283 -3.387762 -3.540924
Head 0.371018 -19.133632 17.844528
LeftShoulder -13.633644 19.042874 30.783897
LeftArm 20.260495 -20.269537 -16.132487
LeftForeArm 14.754711 0.000000 10.829648
LeftHand -28.235523 0.000000 -2.936633
LeftHandThumb1 -26.253704 0.000000 33.147579
RightShoulder -25.131535 10.344914 -37.247970
RightArm -18.492263 12.903139 25.933444
RightForeArm -25.010635 -0.000000 18.265179
RightHand -18.064147 -0.000000 0.950037
RightHandThumb1 -24.326973 -0.000000 -32.862282
LeftUpLeg 7.071045 5.318361 -4.072487
LeftLeg -5.262014 -0.000000 0.000000
LeftFoot -19.879824 13.948173 -26.711536
LeftToeBase 2.905022 -0.000000 -0.000000
RightUpLeg -28.567983 -18.444025 8.189379
RightLeg -2.672362 -0.000000 0.000000
RightFoot 30.262446 12.804122 4.214910
RightToeBase -9.135170 -0.000000 0.000000
